<?xml version="1.0" encoding="UTF-8"?>
<svg width="26px" height="22px" viewBox="0 0 26 22" version="1.1" xmlns="http://www.w3.org/2000/svg" xmlns:xlink="http://www.w3.org/1999/xlink">
    <!-- Generator: Sketch 50.2 (55047) - http://www.bohemiancoding.com/sketch -->
    <title>cow</title>
    <desc>Created with Sketch.</desc>
    <defs></defs>
    <g id="Page-1" stroke="none" stroke-width="1" fill="none" fill-rule="evenodd">
        <g id="Al_Maha_Systems_v1" transform="translate(-253.000000, -864.000000)" fill="#000000" fill-rule="nonzero">
            <g id="cow" transform="translate(253.000000, 864.000000)">
                <path d="M4.03737931,4.87413793 C3.73241379,4.87413793 3.48358621,4.62531034 3.48358621,4.32034483 C3.48358621,4.01537931 3.73241379,3.76731034 4.03737931,3.76731034 C4.34234483,3.76731034 4.59117241,4.01537931 4.59117241,4.32034483 C4.59117241,4.62531034 4.34310345,4.87413793 4.03737931,4.87413793 Z M4.03737931,4.11551724 C3.92434483,4.11551724 3.83255172,4.20731034 3.83255172,4.32034483 C3.83255172,4.54717241 4.2422069,4.54717241 4.2422069,4.32034483 C4.2422069,4.20731034 4.15041379,4.11551724 4.03737931,4.11551724 Z" id="Shape"></path>
                <path d="M2.12489655,7.65144828 C1.67048276,7.65144828 1.12503448,7.34648276 0.837517241,7.08627586 C0.720689655,6.98006897 -0.295103448,6.0317931 0.0842068966,5.36193103 C0.192689655,5.17 0.511310345,4.85365517 1.26841379,4.12462069 C1.77744828,3.63455172 2.35475862,3.07772414 2.60358621,2.76896552 C2.72117241,2.62406897 2.83193103,2.47158621 2.94117241,2.32365517 C3.34096552,1.77896552 3.75517241,1.21606897 4.39165517,1.05144828 C4.94848276,0.908827586 5.98324138,0.642551724 6.81393103,1.66744828 C6.94668966,1.83055172 6.92165517,2.06951724 6.75931034,2.20151724 C6.59544828,2.33427586 6.35724138,2.30772414 6.22524138,2.14537931 C5.74124138,1.54834483 5.2177931,1.6242069 4.58206897,1.78655172 C4.20731034,1.88365517 3.88944828,2.31531034 3.55337931,2.77275862 C3.43731034,2.93055172 3.31972414,3.09062069 3.19455172,3.24537931 C2.91537931,3.59131034 2.34565517,4.14055172 1.79489655,4.67082759 C1.386,5.06455172 0.826137931,5.60468966 0.743448276,5.73744828 C0.754068966,5.82544828 1.02489655,6.23282759 1.34655172,6.52337931 C1.606,6.75855172 2.03234483,6.92317241 2.14689655,6.89131034 C2.18786207,6.87917241 2.24248276,6.85868966 2.30772414,6.83441379 C2.728,6.67662069 3.51013793,6.38303448 4.35296552,6.72137931 C5.00310345,6.97855172 6.36103448,6.424 7.07110345,5.34068966 C7.18641379,5.1662069 7.42082759,5.11689655 7.59606897,5.23144828 C7.77131034,5.346 7.81986207,5.58117241 7.70606897,5.75641379 C6.84275862,7.07489655 5.14496552,7.85627586 4.07075862,7.42462069 C3.50331034,7.19855172 2.91993103,7.41475862 2.57248276,7.54448276 C2.48448276,7.57786207 2.41013793,7.60441379 2.35248276,7.62110345 C2.28117241,7.64234483 2.20455172,7.65144828 2.12489655,7.65144828 Z" id="Shape"></path>
                <path d="M6.92241379,3.85303448 C6.7502069,3.85303448 6.59468966,3.73544828 6.55372414,3.5602069 C6.50593103,3.35613793 6.63186207,3.15282759 6.83593103,3.10427586 C7.37682759,2.97682759 7.95641379,2.20682759 7.942,1.782 C7.93441379,1.56882759 7.87903448,1.43455172 7.84186207,1.38144828 C7.83124138,1.39510345 7.80165517,1.41634483 7.76296552,1.45503448 C7.27137931,1.94586207 6.49075862,2.48827586 6.18958621,2.67413793 C6.01131034,2.78262069 5.77765517,2.728 5.66765517,2.55048276 C5.55841379,2.3722069 5.6137931,2.13855172 5.79206897,2.0277931 C6.05758621,1.86393103 6.78737931,1.35793103 7.22662069,0.917931034 C7.60517241,0.540137931 7.94427586,0.594 8.11193103,0.66 C8.46089655,0.797310345 8.68089655,1.20696552 8.69986207,1.75468966 C8.72944828,2.58462069 7.87675862,3.63758621 7.01041379,3.84165517 C6.98082759,3.85 6.95124138,3.85303448 6.92241379,3.85303448 Z" id="Shape"></path>
                <path d="M19.7347586,21.3870345 L18.464069,21.3870345 C18.3563448,21.3870345 18.253931,21.3407586 18.1818621,21.2618621 C18.1097931,21.1822069 18.0748966,21.0752414 18.0870345,20.9682759 C18.1621379,20.2498621 18.3396552,18.2448276 18.2577241,17.6030345 C18.1765517,16.968069 18.0058621,16.1191724 17.8814483,15.5001379 L17.7949655,15.0654483 C17.776,14.9630345 17.6083448,14.6815862 17.4604138,14.4335172 C16.9953793,13.6513793 16.2928966,12.4686897 16.4575172,11.2169655 C16.4848276,11.0098621 16.6684138,10.8581379 16.8831034,10.89 C17.0902069,10.9173103 17.2366207,11.1077241 17.2093103,11.3163448 C17.0788276,12.3071034 17.6758621,13.3122759 18.112069,14.0466207 C18.3343448,14.4198621 18.4944138,14.6906897 18.5391724,14.922069 L18.6241379,15.3514483 C18.7508276,15.9818621 18.9237931,16.845931 19.0087586,17.5074483 C19.0937241,18.1682069 18.9548966,19.8409655 18.8813103,20.6284138 L19.3615172,20.6284138 C19.3706207,20.4266207 19.3857931,20.1444138 19.4070345,19.756 C19.4449655,19.0618621 19.4927586,18.1970345 19.4821379,17.8867586 C19.4593793,17.2571034 19.5026207,15.0555862 19.5693793,14.5609655 C19.6164138,14.2195862 19.9312414,13.7765517 20.4417931,13.0816552 C20.7475172,12.6644138 21.0646207,12.2335172 21.2641379,11.8678621 C21.6957931,11.0796552 21.934,9.02151724 21.6062759,7.44662069 C21.3051034,5.99537931 20.0746207,4.83848276 18.5444828,4.56689655 C17.6364138,4.40606897 16.9422759,4.65337931 16.2701379,4.89310345 C15.7838621,5.06606897 15.3241379,5.22917241 14.8196552,5.22917241 C13.7750345,5.22917241 11.7426897,5.12903448 10.7405517,4.862 C9.77482759,4.60331034 8.184,3.83406897 7.65751724,3.46689655 C7.48682759,3.3477931 7.44434483,3.11110345 7.5642069,2.93965517 C7.68331034,2.76668966 7.92,2.7242069 8.0922069,2.84482759 C8.56482759,3.17331034 10.0593103,3.894 10.9385517,4.12841379 C11.8215862,4.36510345 13.7408966,4.47055172 14.821931,4.47055172 C15.1951724,4.47055172 15.5767586,4.33475862 16.0182759,4.17772414 C16.7465517,3.91751724 17.571931,3.62393103 18.6787586,3.81965517 C20.5115862,4.14434483 21.9863448,5.5402069 22.3504828,7.29186207 C22.6911034,8.93124138 22.4991724,11.1942069 21.9302069,12.232 C21.7064138,12.6416552 21.3748966,13.0930345 21.054,13.53 C20.7725517,13.9123448 20.3484828,14.4904138 20.321931,14.6633793 C20.262,15.1048966 20.2202759,17.2798621 20.2407586,17.8586897 C20.2528966,18.2038621 20.2066207,19.0497241 20.1656552,19.7969655 C20.1391034,20.2771724 20.1057241,20.8742069 20.1133103,20.9766207 C20.1201379,21.082069 20.0837241,21.1875172 20.0116552,21.2641379 C19.9395862,21.3407586 19.8394483,21.3870345 19.7347586,21.3870345 Z" id="Shape"></path>
                <path d="M18.0195172,15.3089655 C17.8981379,15.3089655 17.7782759,15.2505517 17.7046897,15.142069 C17.402,14.6952414 15.9575862,14.2142759 14.4904138,14.249931 C13.5709655,14.2688966 12.5968966,14.7346897 12.0802759,15.1587586 C11.9194483,15.2930345 11.6797241,15.2687586 11.5462069,15.1071724 C11.4134483,14.9455862 11.4362069,14.7066207 11.5985517,14.5738621 C12.2327586,14.051931 13.3684138,13.5148276 14.4744828,13.4913103 C15.9226897,13.4715862 17.7653793,13.8797241 18.3328276,14.7164828 C18.4504138,14.8902069 18.4048966,15.1253793 18.231931,15.2429655 C18.1666897,15.2877241 18.0931034,15.3089655 18.0195172,15.3089655 Z" id="Shape"></path>
                <path d="M11.3694483,21.3870345 L9.97206897,21.3870345 C9.86282759,21.3870345 9.75965517,21.34 9.68758621,21.258069 C9.61551724,21.1768966 9.58213793,21.0676552 9.5957931,20.9591724 C9.59882759,20.9333793 9.93110345,18.3093103 9.91062069,17.4368966 C9.88862069,16.4908966 9.71413793,15.3795172 9.52144828,14.9592414 C9.45241379,14.8090345 9.284,14.5609655 9.10572414,14.2984828 C8.72110345,13.7325517 8.28565517,13.09 8.21965517,12.562 C8.19386207,12.3541379 8.34103448,12.1644828 8.54889655,12.137931 C8.756,12.1091034 8.94641379,12.2585517 8.9722069,12.4671724 C9.0162069,12.8153793 9.43041379,13.4268276 9.73386207,13.8728966 C9.93868966,14.174069 10.1154483,14.4350345 10.2110345,14.6444138 C10.4795862,15.2308276 10.648,16.5121379 10.6692414,17.4194483 C10.685931,18.1317931 10.4962759,19.8288276 10.4006897,20.6276552 L10.9969655,20.6276552 C11.0136552,19.9403448 11.0682759,18.5103448 11.2048276,17.4027586 C11.2632414,16.9248276 11.3246897,16.2754483 11.3876552,15.6078621 C11.5363448,14.0322069 11.6433103,12.9701379 11.7715172,12.5862759 C11.8375172,12.3882759 12.0514483,12.2805517 12.2509655,12.3465517 C12.4497241,12.4133103 12.5566897,12.628 12.4906897,12.8267586 C12.3806897,13.1575172 12.2486897,14.5556552 12.1424828,15.679931 C12.0787586,16.3558621 12.0165517,17.0135862 11.9566207,17.4968276 C11.7866897,18.876 11.748,20.7702759 11.748,21.0084828 C11.7487586,21.2171034 11.5795862,21.3870345 11.3694483,21.3870345 Z" id="Shape"></path>
                <path d="M9.31662069,15.3681379 C8.52613793,15.3681379 7.5497931,15.0017241 7.17655172,13.8615172 C7.01193103,13.3585517 6.89358621,12.8753103 6.78055172,12.4087586 C6.61289655,11.7191724 6.43917241,11.006069 6.10613793,10.2049655 C5.9437931,9.81351724 5.82165517,9.47213793 5.71241379,9.16944828 C5.44462069,8.42372414 5.2837931,7.97386207 4.80889655,7.55889655 C4.65110345,7.42082759 4.63517241,7.18110345 4.77324138,7.02331034 C4.91131034,6.86551724 5.1517931,6.85110345 5.30882759,6.98689655 C5.93241379,7.53234483 6.13951724,8.11117241 6.42703448,8.91303448 C6.53172414,9.20662069 6.64931034,9.53586207 6.80710345,9.91441379 C7.16213793,10.7693793 7.34268966,11.5113103 7.51793103,12.2297241 C7.63324138,12.7031034 7.74172414,13.1506897 7.89724138,13.6263448 C8.24696552,14.6929655 9.34696552,14.6588276 9.70503448,14.5632414 C9.90606897,14.5146897 10.1154483,14.6292414 10.1693103,14.8317931 C10.2231724,15.0343448 10.1033103,15.2422069 9.90075862,15.296069 C9.73006897,15.3415862 9.53055172,15.3681379 9.31662069,15.3681379 Z" id="Shape"></path>
                <path d="M23.694,13.7067586 C23.5126897,13.7067586 23.3526207,13.5770345 23.3207586,13.3926897 C23.2646207,13.068 23.2593103,12.3723448 23.254,11.4915862 C23.2471724,10.4886897 23.2388276,9.35227586 23.1493103,8.63082759 C23.0044138,7.47317241 21.8391724,6.40351724 21.0896552,6.10841379 C20.8946897,6.0317931 20.7991034,5.81103448 20.8757241,5.61682759 C20.9531034,5.42186207 21.1723448,5.32324138 21.368069,5.40365517 C22.2761379,5.76172414 23.709931,7.00510345 23.9018621,8.53751724 C23.9974483,9.30372414 24.0057931,10.4636552 24.0126207,11.4877931 C24.017931,12.2661379 24.0232414,13.0012414 24.0687586,13.2637241 C24.1044138,13.470069 23.9663448,13.6665517 23.76,13.7022069 C23.7372414,13.7052414 23.7152414,13.7067586 23.694,13.7067586 Z" id="Shape"></path>
                <path d="M23.9344828,17.2502759 C23.9261379,17.2502759 23.9185517,17.2502759 23.9102069,17.2495172 C23.7888276,17.2411724 23.6788276,17.175931 23.6135862,17.0742759 C23.6022069,17.0568276 23.3275862,16.6198621 22.9953103,15.8847586 C22.8011034,15.4546207 22.3914483,14.3781379 22.7745517,13.6817241 C22.8875862,13.4761379 23.1204828,13.2166897 23.584,13.1506897 C24.0406897,13.0854483 24.3995172,13.1802759 24.6544138,13.4306207 C25.0974483,13.866069 25.0655862,14.63 24.9874483,15.2467586 C24.8478621,16.3535862 24.2508276,17.0841379 24.2257931,17.1144828 C24.1537241,17.2002069 24.0467586,17.2502759 23.9344828,17.2502759 Z M23.8517931,13.888069 C23.804,13.888069 23.7501379,13.8926207 23.6917241,13.9009655 C23.5278621,13.9237241 23.4724828,13.9874483 23.4398621,14.0466207 C23.2972414,14.3053103 23.3988966,14.9326897 23.6871724,15.5722069 C23.7812414,15.780069 23.87,15.9628966 23.9488966,16.1168966 C24.068,15.8665517 24.1863448,15.5357931 24.2348966,15.1511724 C24.3335172,14.3644828 24.228069,14.0754483 24.1226207,13.9707586 C24.0672414,13.9153793 23.9762069,13.888069 23.8517931,13.888069 Z" id="Shape"></path>
            </g>
        </g>
    </g>
</svg>