<?xml version="1.0" encoding="UTF-8"?>
<svg width="140px" height="117px" viewBox="0 0 140 117" version="1.1" xmlns="http://www.w3.org/2000/svg" xmlns:xlink="http://www.w3.org/1999/xlink">
    <!-- Generator: Sketch 51.3 (57544) - http://www.bohemiancoding.com/sketch -->
    <title>cow</title>
    <desc>Created with Sketch.</desc>
    <defs></defs>
    <g id="Page-1" stroke="none" stroke-width="1" fill="none" fill-rule="evenodd">
        <g id="Al_Maha_Systems_Cow_Level" transform="translate(-273.000000, -134.000000)" fill="#000000" fill-rule="nonzero">
            <g id="cow" transform="translate(342.982759, 192.500000) scale(-1, 1) translate(-342.982759, -192.500000) translate(273.000000, 131.000000)">
                <path d="M22.5726207,27.2508621 C20.8675862,27.2508621 19.4764138,25.8596897 19.4764138,24.1546552 C19.4764138,22.4496207 20.8675862,21.0626897 22.5726207,21.0626897 C24.2776552,21.0626897 25.6688276,22.4496207 25.6688276,24.1546552 C25.6688276,25.8596897 24.2818966,27.2508621 22.5726207,27.2508621 Z M22.5726207,23.0094828 C21.9406552,23.0094828 21.4274483,23.5226897 21.4274483,24.1546552 C21.4274483,25.4228276 23.7177931,25.4228276 23.7177931,24.1546552 C23.7177931,23.5226897 23.2045862,23.0094828 22.5726207,23.0094828 Z" id="Shape"></path>
                <path d="M11.8801034,42.7785517 C9.33951724,42.7785517 6.28996552,41.0735172 4.68248276,39.6187241 C4.02931034,39.024931 -1.64989655,33.7232069 0.470793103,29.978069 C1.07731034,28.905 2.85868966,27.1363448 7.09158621,23.0603793 C9.93755172,20.3204483 13.1652414,17.2072759 14.5564138,15.4810345 C15.2138276,14.670931 15.833069,13.8184138 16.4438276,12.9913448 C18.6790345,9.94603448 20.9948276,6.79893103 24.5533448,5.87855172 C27.6665172,5.08117241 33.4517586,3.59244828 38.096069,9.32255172 C38.8383103,10.2344483 38.6983448,11.5704828 37.7906897,12.3084828 C36.8745517,13.0507241 35.5427586,12.9022759 34.8047586,11.9946207 C32.0987586,8.65665517 29.1722069,9.0807931 25.617931,9.98844828 C23.5226897,10.5313448 21.7455517,12.9446897 19.8666207,15.5022414 C19.2176897,16.3844483 18.5602759,17.2793793 17.8604483,18.1446207 C16.2996207,20.0786897 13.1143448,23.1494483 10.0351034,26.1141724 C7.749,28.3154483 4.61886207,31.3353103 4.15655172,32.0775517 C4.21593103,32.5695517 5.73010345,34.8471724 7.52844828,36.4716207 C8.979,37.7864483 11.3626552,38.7068276 12.0031034,38.5286897 C12.2321379,38.4608276 12.5375172,38.3463103 12.9022759,38.2105862 C15.252,37.3283793 19.6248621,35.6869655 24.3370345,37.5786207 C27.9718966,39.0164483 35.5639655,35.916 39.5338966,29.8593103 C40.1785862,28.8837931 41.4891724,28.6081034 42.468931,29.2485517 C43.4486897,29.889 43.7201379,31.2038276 43.083931,32.1835862 C38.2572414,39.5551034 28.7650345,43.9237241 22.7592414,41.5103793 C19.5866897,40.2464483 16.325069,41.4552414 14.3825172,42.1805172 C13.8905172,42.3671379 13.4748621,42.5155862 13.1525172,42.6088966 C12.7538276,42.7276552 12.3254483,42.7785517 11.8801034,42.7785517 Z" id="Shape"></path>
                <path d="M38.7025862,21.5419655 C37.7397931,21.5419655 36.8703103,20.8845517 36.6412759,19.9047931 C36.374069,18.7638621 37.0781379,17.6271724 38.219069,17.3557241 C41.2431724,16.6431724 44.4835862,12.3381724 44.403,9.963 C44.3605862,8.77117241 44.0509655,8.02044828 43.8431379,7.72355172 C43.7837586,7.79989655 43.6183448,7.91865517 43.4020345,8.13496552 C40.6536207,10.8791379 36.2892414,13.9117241 34.6054138,14.9508621 C33.6086897,15.5573793 32.3023448,15.252 31.6873448,14.2595172 C31.0765862,13.2627931 31.3862069,11.9564483 32.382931,11.3372069 C33.8674138,10.421069 37.9476207,7.59206897 40.4033793,5.13206897 C42.5198276,3.01986207 44.4157241,3.321 45.353069,3.69 C47.3041034,4.45768966 48.5341034,6.74803448 48.6401379,9.81031034 C48.8055517,14.4503793 44.0382414,20.3374138 39.1945862,21.4783448 C39.0291724,21.525 38.8637586,21.5419655 38.7025862,21.5419655 Z" id="Shape"></path>
                <path d="M110.335241,119.572966 L103.230931,119.572966 C102.628655,119.572966 102.056069,119.314241 101.653138,118.873138 C101.250207,118.427793 101.055103,117.829759 101.122966,117.231724 C101.542862,113.215138 102.535345,102.005172 102.077276,98.4169655 C101.623448,94.866931 100.669138,90.1208276 99.9735517,86.6598621 L99.4900345,84.2295517 C99.384,83.6569655 98.4466552,82.0834138 97.6195862,80.6964828 C95.0196207,76.3236207 91.0921034,69.7113103 92.0124828,62.7130345 C92.1651724,61.5551379 93.1915862,60.7068621 94.3918966,60.885 C95.5497931,61.0376897 96.3683793,62.1022759 96.2156897,63.2686552 C95.4861724,68.8078966 98.8241379,74.4277241 101.262931,78.5333793 C102.505655,80.6201379 103.400586,82.1343103 103.650828,83.427931 L104.125862,85.8285517 C104.834172,89.3531379 105.801207,94.184069 106.276241,97.8825517 C106.751276,101.576793 105.975103,110.929034 105.56369,115.331586 L108.248483,115.331586 C108.299379,114.203379 108.384207,112.625586 108.502966,110.454 C108.715034,106.573138 108.982241,101.737966 108.922862,100.003241 C108.795621,96.4828966 109.037379,84.1744138 109.410621,81.4090345 C109.673586,79.5004138 111.433759,77.0234483 114.288207,73.1383448 C115.997483,70.8055862 117.770379,68.3964828 118.885862,66.3521379 C121.299207,61.9453448 122.631,50.4384828 120.798724,41.6333793 C119.114897,33.5196207 112.235379,27.0515172 103.680517,25.5331034 C98.6035862,24.633931 94.7227241,26.0166207 90.9648621,27.3568966 C88.2461379,28.323931 85.6758621,29.2358276 82.8553448,29.2358276 C77.0149655,29.2358276 65.6523103,28.6759655 60.0494483,27.183 C54.6501724,25.7366897 45.756,21.435931 42.8124828,19.3831034 C41.8581724,18.7172069 41.6206552,17.3938966 42.2907931,16.4353448 C42.9566897,15.4683103 44.28,15.2307931 45.2427931,15.9051724 C47.8851724,17.7416897 56.2406897,21.771 61.1564483,23.0815862 C66.0934138,24.4048966 76.8241034,24.9944483 82.868069,24.9944483 C84.9548276,24.9944483 87.0882414,24.2352414 89.5567241,23.3572759 C93.6284483,21.9024828 98.243069,20.261069 104.431241,21.3553448 C114.678414,23.1706552 122.923655,30.9747931 124.959517,40.7681379 C126.863897,49.9337586 125.790828,62.5857931 122.609793,68.388 C121.358586,70.6783448 119.505103,73.2019655 117.711,75.645 C116.137448,77.7826552 113.766517,81.0145862 113.618069,81.9816207 C113.283,84.4501034 113.049724,96.6101379 113.164241,99.8463103 C113.232103,101.776138 112.973379,106.505276 112.744345,110.683034 C112.595897,113.367828 112.409276,116.705793 112.45169,117.278379 C112.489862,117.867931 112.286276,118.457483 111.883345,118.885862 C111.480414,119.314241 110.920552,119.572966 110.335241,119.572966 Z" id="Shape"></path>
                <path d="M100.745483,85.5910345 C100.066862,85.5910345 99.3967241,85.2644483 98.9853103,84.657931 C97.293,82.1597586 89.2174138,79.4707241 81.0145862,79.670069 C75.8740345,79.7761034 70.4281034,82.3803103 67.5397241,84.7512414 C66.6405517,85.5019655 65.3002759,85.3662414 64.5537931,84.4628276 C63.8115517,83.5594138 63.9387931,82.2233793 64.8464483,81.4811379 C68.3922414,78.563069 74.7415862,75.5601724 80.9255172,75.4286897 C89.0223103,75.3184138 99.3246207,77.6002759 102.497172,82.2785172 C103.154586,83.2497931 102.900103,84.5646207 101.933069,85.2220345 C101.56831,85.4722759 101.156897,85.5910345 100.745483,85.5910345 Z" id="Shape"></path>
                <path d="M63.5655517,119.572966 L55.752931,119.572966 C55.1421724,119.572966 54.5653448,119.31 54.1624138,118.851931 C53.7594828,118.398103 53.5728621,117.787345 53.6492069,117.180828 C53.6661724,117.036621 55.5238966,102.36569 55.4093793,97.4881034 C55.2863793,92.1991034 54.3108621,85.9854828 53.2335517,83.6357586 C52.8475862,82.7959655 51.906,81.4090345 50.9092759,79.9415172 C48.7588966,76.7774483 46.3243448,73.185 45.9553448,70.233 C45.8111379,69.0708621 46.6339655,68.0105172 47.7961034,67.862069 C48.954,67.7008966 50.0185862,68.5364483 50.1627931,69.7028276 C50.4087931,71.6496207 52.7245862,75.0681724 54.4211379,77.5621034 C55.5663103,79.245931 56.5545517,80.7049655 57.0889655,81.8755862 C58.5904138,85.1541724 59.532,92.3178621 59.6507586,97.3905517 C59.744069,101.373207 58.6837241,110.861172 58.1493103,115.327345 L61.4830345,115.327345 C61.5763448,111.484655 61.8817241,103.489655 62.6451724,97.2972414 C62.9717586,94.6251724 63.3153103,90.9945517 63.6673448,87.2621379 C64.4986552,78.4527931 65.0966897,72.5148621 65.8134828,70.3687241 C66.1824828,69.2617241 67.3785517,68.6594483 68.4940345,69.0284483 C69.6052759,69.4016897 70.2033103,70.602 69.8343103,71.7132414 C69.2193103,73.5624828 68.4813103,81.3793448 67.8875172,87.665069 C67.5312414,91.4441379 67.1834483,95.1214138 66.8483793,97.8231724 C65.8983103,105.534 65.682,116.124724 65.682,117.456517 C65.6862414,118.622897 64.7404138,119.572966 63.5655517,119.572966 Z" id="Shape"></path>
                <path d="M52.0883793,85.9218621 C47.6688621,85.9218621 42.2102069,83.8732759 40.1234483,77.4984828 C39.203069,74.6864483 38.5414138,71.9846897 37.9094483,69.3762414 C36.9721034,65.5208276 36.0008276,61.533931 34.1388621,57.0550345 C33.2312069,54.8664828 32.5483448,52.9578621 31.9375862,51.2655517 C30.4403793,47.0962759 29.5412069,44.5811379 26.8861034,42.2611034 C26.0038966,41.4891724 25.9148276,40.1488966 26.6867586,39.2666897 C27.4586897,38.3844828 28.8032069,38.3038966 29.6811724,39.0631034 C33.1675862,42.1126552 34.3254828,45.3488276 35.9329655,49.8319655 C36.5182759,51.4733793 37.1756897,53.3141379 38.0578966,55.4305862 C40.0428621,60.2106207 41.0523103,64.3586897 42.032069,68.3752759 C42.6767586,71.0218966 43.2832759,73.5243103 44.1527586,76.1836552 C46.1080345,82.1470345 52.2580345,81.9561724 54.2599655,81.4217586 C55.383931,81.1503103 56.5545517,81.7907586 56.8556897,82.9232069 C57.1568276,84.0556552 56.4866897,85.2177931 55.3542414,85.518931 C54.399931,85.7734138 53.2844483,85.9218621 52.0883793,85.9218621 Z" id="Shape"></path>
                <path d="M132.471,76.6332414 C131.45731,76.6332414 130.562379,75.9079655 130.384241,74.8773103 C130.070379,73.062 130.04069,69.1726552 130.011,64.2484138 C129.972828,58.6413103 129.926172,52.2877241 129.42569,48.2541724 C128.615586,41.7818276 122.100828,35.8014828 117.910345,34.1515862 C116.82031,33.7232069 116.285897,32.4889655 116.714276,31.4031724 C117.146897,30.3131379 118.372655,29.7617586 119.466931,30.2113448 C124.543862,32.2132759 132.560069,39.1648966 133.633138,47.7324828 C134.167552,52.0162759 134.214207,58.5013448 134.252379,64.2272069 C134.282069,68.5788621 134.311759,72.6887586 134.566241,74.1562759 C134.765586,75.309931 133.993655,76.4084483 132.84,76.6077931 C132.712759,76.6247586 132.589759,76.6332414 132.471,76.6332414 Z" id="Shape"></path>
                <path d="M133.815517,96.4447241 C133.768862,96.4447241 133.726448,96.4447241 133.679793,96.4404828 C133.001172,96.3938276 132.386172,96.029069 132.021414,95.4607241 C131.957793,95.3631724 130.422414,92.9201379 128.56469,88.8102414 C127.478897,86.4053793 125.188552,80.3868621 127.330448,76.4932759 C127.962414,75.3438621 129.264517,73.8933103 131.856,73.5243103 C134.40931,73.1595517 136.415483,73.6897241 137.840586,75.0893793 C140.317552,77.523931 140.139414,81.795 139.702552,85.2432414 C138.922138,91.4314138 135.584172,95.5158621 135.444207,95.6855172 C135.041276,96.1647931 134.443241,96.4447241 133.815517,96.4447241 Z M133.353207,77.646931 C133.086,77.646931 132.784862,77.6723793 132.458276,77.7190345 C131.542138,77.8462759 131.232517,78.2025517 131.050138,78.5333793 C130.252759,79.9796897 130.821103,83.4873103 132.432828,87.0627931 C132.958759,88.224931 133.455,89.2471034 133.896103,90.1081034 C134.562,88.7084483 135.223655,86.8592069 135.495103,84.7088276 C136.046483,80.3105172 135.456931,78.6945517 134.867379,78.1092414 C134.557759,77.7996207 134.048793,77.646931 133.353207,77.646931 Z" id="Shape"></path>
            </g>
        </g>
    </g>
</svg>