<?xml version="1.0" encoding="UTF-8"?>
<svg width="11px" height="23px" viewBox="0 0 11 23" version="1.1" xmlns="http://www.w3.org/2000/svg" xmlns:xlink="http://www.w3.org/1999/xlink">
    <!-- Generator: Sketch 50.2 (55047) - http://www.bohemiancoding.com/sketch -->
    <title>milk-bottle</title>
    <desc>Created with Sketch.</desc>
    <defs></defs>
    <g id="Page-1" stroke="none" stroke-width="1" fill="none" fill-rule="evenodd">
        <g id="Al_Maha_Systems_v1" transform="translate(-260.000000, -892.000000)" fill="#000000" fill-rule="nonzero">
            <g id="milk-bottle" transform="translate(260.000000, 892.000000)">
                <path d="M9.98425106,7.61647447 L7.76323404,3.21584043 L7.76323404,2.20212766 L7.88557447,2.20212766 C8.08826809,2.20212766 8.25259574,2.03784894 8.25259574,1.83510638 L8.25259574,0.367021277 C8.25259574,0.164278723 8.08826809,0 7.88557447,0 L2.58676596,0 C2.38407234,0 2.21974468,0.164278723 2.21974468,0.367021277 L2.21974468,1.83510638 C2.21974468,2.03784894 2.38407234,2.20212766 2.58676596,2.20212766 L2.70910638,2.20212766 L2.70910638,3.21584043 L0.488089362,7.61647447 C0.218744681,8.1501234 0.00773191489,9.03645532 0.00773191489,9.63425957 L0.00773191489,21.6542553 C0.00773191489,22.3962745 0.611408511,23 1.3534766,23 L9.11881489,23 C9.86088298,23 10.4645596,22.3962745 10.4645596,21.6542553 L10.4645596,9.63425957 C10.4645596,9.03640638 10.2535957,8.1501234 9.98425106,7.61647447 Z M2.95378723,0.734042553 L7.51850426,0.734042553 L7.51850426,1.46808511 L2.95378723,1.46808511 L2.95378723,0.734042553 Z M3.40380426,3.46854681 C3.42969149,3.4172617 3.44314894,3.36064255 3.44314894,3.30319149 L3.44314894,2.20212766 L7.02914255,2.20212766 L7.02914255,3.30319149 C7.02914255,3.36064255 7.0426,3.4172617 7.06848723,3.46854681 L8.46527234,6.23603404 C8.20047872,6.32186809 8.01486383,6.46030851 7.85420638,6.58039787 C7.63634255,6.74330638 7.47891489,6.86094894 7.12794468,6.86094894 C6.77697447,6.86094894 6.61954681,6.74330638 6.40168298,6.58039787 C6.14741064,6.39032979 5.83094043,6.1537234 5.2358766,6.1537234 C4.6408617,6.1537234 4.32444043,6.39032979 4.07016809,6.58044681 C3.85235319,6.74330638 3.69497447,6.86094894 3.34405319,6.86094894 C2.99313191,6.86094894 2.83575319,6.74330638 2.6179383,6.58044681 C2.45732979,6.46035745 2.27171489,6.32191702 2.00697021,6.23608298 L3.40380426,3.46854681 Z M9.73051702,21.6542553 C9.73051702,21.9915723 9.45613191,22.2659574 9.11881489,22.2659574 L1.35352553,22.2659574 C1.01620851,22.2659574 0.741823404,21.9915723 0.741823404,21.6542553 L0.741823404,9.63425957 C0.741823404,9.15106383 0.925725532,8.37850851 1.14344255,7.94713617 L1.66882128,6.90621489 C1.87949149,6.94521702 2.01132553,7.04333404 2.17849149,7.16826809 C2.43271489,7.35838511 2.74918511,7.59499149 3.34415106,7.59499149 C3.93911702,7.59499149 4.25558723,7.35838511 4.50981064,7.16826809 C4.72762553,7.00540851 4.88500426,6.88776596 5.23592553,6.88776596 C5.58689574,6.88776596 5.7443234,7.00540851 5.96218723,7.16831702 C6.21645957,7.35843404 6.53292979,7.59499149 7.12794468,7.59499149 C7.72300851,7.59499149 8.03942979,7.35838511 8.29375106,7.16831702 C8.46091702,7.04333404 8.5928,6.94521702 8.80351915,6.90621489 L9.32889787,7.94718511 C9.54656596,8.37845957 9.73051702,9.15106383 9.73051702,9.63425957 L9.73051702,21.6542553 Z" id="Shape"></path>
                <path d="M1.84288723,19.3297872 C1.64019362,19.3297872 1.47586596,19.494066 1.47586596,19.6968085 L1.47586596,21.1648936 C1.47586596,21.3676362 1.64019362,21.5319149 1.84288723,21.5319149 C2.04558085,21.5319149 2.20990851,21.3676362 2.20990851,21.1648936 L2.20990851,19.6968085 C2.20990851,19.494066 2.04558085,19.3297872 1.84288723,19.3297872 Z" id="Shape"></path>
                <path d="M2.29177872,8.11567234 C2.11081277,8.02435745 1.89011064,8.09697872 1.79874681,8.27789574 C1.63578936,8.6007766 1.47586596,9.27257234 1.47586596,9.63425957 L1.47586596,18.2287234 C1.47586596,18.431466 1.64019362,18.5957447 1.84288723,18.5957447 C2.04558085,18.5957447 2.20990851,18.431466 2.20990851,18.2287234 L2.20990851,9.63425957 C2.20990851,9.38610426 2.34223191,8.83018936 2.45405106,8.60870426 C2.54536596,8.4277383 2.47269574,8.20698723 2.29177872,8.11567234 Z" id="Shape"></path>
                <path d="M4.54421277,3.67021277 L5.92807872,3.67021277 C6.13077234,3.67021277 6.2951,3.50593404 6.2951,3.30319149 C6.2951,3.10044894 6.13077234,2.93617021 5.92807872,2.93617021 L4.54421277,2.93617021 C4.34151915,2.93617021 4.17719149,3.10044894 4.17719149,3.30319149 C4.17719149,3.50593404 4.34151915,3.67021277 4.54421277,3.67021277 Z" id="Shape"></path>
            </g>
        </g>
    </g>
</svg>