<?xml version="1.0" encoding="UTF-8"?>
<svg width="20px" height="18px" viewBox="0 0 20 18" version="1.1" xmlns="http://www.w3.org/2000/svg" xmlns:xlink="http://www.w3.org/1999/xlink">
    <!-- Generator: Sketch 51.3 (57544) - http://www.bohemiancoding.com/sketch -->
    <title>attention-icon</title>
    <desc>Created with Sketch.</desc>
    <defs></defs>
    <g id="Page-1" stroke="none" stroke-width="1" fill="none" fill-rule="evenodd">
        <g id="Al_Maha_Systems_Farm_Level" transform="translate(-987.000000, -951.000000)" fill="#C91E2B" fill-rule="nonzero">
            <g id="attention-icon" transform="translate(987.000000, 951.000000)">
                <path d="M19.4258954,15.3003256 L11.0022984,0.710247079 C10.7527294,0.277954415 10.3057269,0.0198812488 9.80655047,0.0198812488 C9.30737407,0.0198812488 8.86037158,0.277954415 8.61080253,0.710247079 L0.187205516,15.3003256 C-0.0624018387,15.7326183 -0.0624018387,16.2488029 0.187205516,16.6810573 C0.436774564,17.1133499 0.883777054,17.3714231 1.38295346,17.3714231 L18.2301475,17.3714231 C18.7293239,17.3714231 19.1763264,17.1133499 19.4258954,16.6810573 C19.6755028,16.2488029 19.6755028,15.7326183 19.4258954,15.3003256 Z M18.429458,16.1057652 C18.4046734,16.1487455 18.3457192,16.2208389 18.2301858,16.2208389 L1.38295346,16.2208389 C1.26734342,16.2208389 1.2084275,16.1487838 1.18368129,16.1057652 C1.15889676,16.0628232 1.12587627,15.9757518 1.18368129,15.875656 L9.60723999,1.28553917 C9.66504501,1.1854434 9.75690481,1.17046543 9.80651216,1.17046543 C9.85615782,1.17046543 9.94801762,1.18540509 10.0057843,1.28553917 L18.4294197,15.875656 C18.487263,15.9757518 18.4542425,16.0628232 18.429458,16.1057652 Z" id="Shape"></path>
                <rect id="Rectangle-path" x="9.23144991" y="5.25167592" width="1.15062249" height="6.13664049"></rect>
                <circle id="Oval" cx="9.806742" cy="13.3060333" r="1"></circle>
            </g>
        </g>
    </g>
</svg>